<?xml version="1.0" standalone="no"?>
<!DOCTYPE svg PUBLIC "-//W3C//DTD SVG 1.1//EN" "http://www.w3.org/Graphics/SVG/1.1/DTD/svg11.dtd" >
<svg xmlns="http://www.w3.org/2000/svg">
<metadata>
This is a custom SVG webfont generated by Font Squirrel.
Copyright   : Copyright  2011 NII Holdings Inc All rights reserved  Derechos Reservados  2011 NII Holdings Inc EUA   2011 NII Holdings Inc Todos los Derechos Reservados
Foundry     : NII Holdings Inc
</metadata>
<defs>
<font id="NIISansLight" horiz-adv-x="1167" >
<font-face units-per-em="2048" ascent="1638" descent="-410" />
<missing-glyph horiz-adv-x="500" />
<glyph unicode=" "  horiz-adv-x="500" />
<glyph unicode="&#x09;" horiz-adv-x="500" />
<glyph unicode="&#xa0;" horiz-adv-x="500" />
<glyph unicode="!" horiz-adv-x="348" d="M92 20v140l21 20h123l20 -20v-140l-20 -20h-123zM109 952v461l20 21h90l21 -21v-461l-17 -565l-22 -20h-56l-22 20z" />
<glyph unicode="&#x22;" horiz-adv-x="631" d="M92 1413l21 21h104l21 -21l-25 -385l-23 -20h-53l-22 20zM393 1413l21 21h104l21 -21l-25 -385l-22 -20h-54l-22 20z" />
<glyph unicode="#" horiz-adv-x="1208" d="M88 498v82l21 20h155l31 23l65 231l-22 20h-148l-20 21v82l20 20h187l33 23l108 393l25 21h84l16 -21l-108 -393l16 -23h254l26 23l109 393l25 21h84l16 -21l-111 -393l21 -23h125l20 -20v-82l-20 -21h-158l-35 -20l-63 -231l22 -23h152l20 -20v-82l-20 -21h-189l-32 -24 l-121 -433l-27 -20h-88l-14 20l123 433l-17 24h-252l-26 -24l-121 -433l-27 -20h-88l-14 20l123 433l-19 24h-120zM422 623l14 -23h250l31 23l65 231l-18 20h-252l-27 -20z" />
<glyph unicode="$" d="M94 340l21 25h94l22 -23q29 -116 92 -162.5t193 -52.5l21 16v512l-21 25q-159 46 -232.5 93.5t-111 117t-37.5 170.5q0 155 98.5 244.5t282.5 97.5l21 14v84l20 19h70l20 -19v-86l21 -14q159 -15 251 -91t123 -216l-20 -21h-94l-21 21q-30 95 -86.5 137.5t-152.5 52.5 l-21 -16v-471l21 -23q169 -44 249 -93t119 -121t39 -181q0 -161 -108 -258t-299 -111l-21 -20v-121l-20 -21h-70l-20 21v121l-21 18q-189 7 -291.5 86t-130.5 246zM260 1067q0 -78 23.5 -122t77.5 -76.5t155 -63.5l21 16v449l-21 16q-256 -11 -256 -219zM647 143l21 -16 q282 15 282 252q0 78 -23.5 123t-77.5 77t-181 70l-21 -16v-490z" />
<glyph unicode="%" horiz-adv-x="1761" d="M78 975q0 226 75 337t234 111q301 0 301 -448q0 -449 -305 -449q-156 0 -230.5 113t-74.5 336zM193 973q0 -344 190 -344q95 0 143.5 87.5t48.5 256.5q0 173 -44.5 259.5t-143.5 86.5q-100 0 -147 -81.5t-47 -264.5zM541 20l602 1432l24 21h76l17 -21l-598 -1432l-27 -20 h-80zM1073 432q0 225 74.5 337t234.5 112q151 0 226 -114.5t75 -334.5q0 -448 -305 -448q-156 0 -230.5 112.5t-74.5 335.5zM1188 430q0 -344 190 -344q94 0 143.5 87.5t49.5 256.5q0 176 -46 261t-143 85q-100 0 -147 -81.5t-47 -264.5z" />
<glyph unicode="&#x26;" horiz-adv-x="1462" d="M94 385q0 142 86.5 246.5t272.5 185.5v17q-101 94 -137.5 167.5t-36.5 153.5q0 137 98 217t268 80q167 0 265 -80t98 -211q0 -108 -68.5 -193t-243.5 -180v-14l422 -405h21q83 111 104 264l21 20h82l20 -20q-19 -204 -145 -348v-15l165 -157v-97l-18 -16h-43l-184 176 h-19q-100 -80 -175 -118.5t-160.5 -58t-190.5 -19.5q-236 0 -369 108t-133 297zM223 385q0 -130 100.5 -210.5t270.5 -80.5q262 0 438 166v21l-483 462h-17q-161 -72 -235 -157.5t-74 -200.5zM406 1155q0 -68 42.5 -135t157.5 -162h15q141 68 200.5 137.5t59.5 161.5 q0 88 -64 139.5t-174 51.5q-108 0 -172.5 -53t-64.5 -140z" />
<glyph unicode="'" horiz-adv-x="330" d="M92 1413l21 21h104l21 -21l-25 -385l-23 -20h-53l-22 20z" />
<glyph unicode="(" horiz-adv-x="653" d="M119 514q0 270 79 490t265 450l29 19h108l12 -19q-185 -231 -266.5 -453t-81.5 -489q0 -262 80 -480t266 -454l-6 -20h-108l-35 20q-183 226 -262.5 443.5t-79.5 492.5z" />
<glyph unicode=")" horiz-adv-x="653" d="M41 1454l12 19h109l28 -19q185 -228 265 -447t80 -493q0 -270 -78.5 -487.5t-263.5 -448.5l-35 -20h-109l-6 20q186 235 266 453t80 481q0 267 -82 489.5t-266 452.5z" />
<glyph unicode="*" horiz-adv-x="846" d="M41 1155l22 70l29 8l279 -86l-11 287l21 20h88l20 -20l-12 -289l277 88l26 -10l25 -70l-14 -27l-275 -71l178 -256l-4 -31l-69 -43l-31 10l-168 269l-170 -267l-33 -10l-67 41l-5 31l185 256l-279 71z" />
<glyph unicode="+" d="M68 641v82l20 20h412l20 21v420l21 20h86l20 -20v-420l21 -21h411l21 -20v-82l-21 -20h-411l-21 -21v-422l-20 -20h-86l-21 20v422l-20 21h-412z" />
<glyph unicode="," horiz-adv-x="348" d="M92 20v140l21 20h123l20 -20v-92q0 -200 -55 -328l-27 -21h-55l-21 21q24 53 40 108t22 132l-21 20h-26z" />
<glyph unicode="-" horiz-adv-x="707" d="M92 510v70l21 20h481l20 -20v-70l-20 -21h-481z" />
<glyph unicode="." horiz-adv-x="348" d="M92 20v140l21 20h123l20 -20v-140l-20 -20h-123z" />
<glyph unicode="/" horiz-adv-x="778" d="M29 20l602 1432l24 21h84l17 -21l-598 -1432l-27 -20h-88z" />
<glyph unicode="0" d="M92 717q0 368 120.5 552.5t375.5 184.5q245 0 366 -187.5t121 -549.5q0 -366 -123.5 -551.5t-369.5 -185.5q-249 0 -369.5 185t-120.5 552zM231 715q0 -613 353 -613q175 0 263.5 157t88.5 456q0 314 -84.5 465t-261.5 151q-187 0 -273 -148t-86 -468z" />
<glyph unicode="1" d="M139 20v82l21 21h356l21 20v1137l-275 -158h-82l-20 21v61l391 230h96l21 -21v-1270l20 -20h322l20 -21v-82l-20 -20h-850z" />
<glyph unicode="2" d="M94 20v95l488 446q150 138 212 213t89.5 143t27.5 148q0 124 -83.5 195t-231.5 71q-142 0 -230.5 -52.5t-117.5 -154.5l-21 -20h-100l-21 18q30 160 159.5 246t332.5 86q207 0 325.5 -103.5t118.5 -287.5q0 -92 -25 -164t-73 -138.5t-119 -134.5t-553 -503h783l20 -21 v-82l-20 -20h-940z" />
<glyph unicode="3" d="M80 303l20 25h101l20 -29q27 -105 114 -151t247 -46q177 0 269.5 77.5t92.5 223.5q0 127 -88.5 198t-251.5 71h-96l-21 10v104l21 11h90q145 0 229 71.5t84 198.5q0 125 -80.5 194.5t-230.5 69.5q-136 0 -224.5 -47.5t-113.5 -144.5l-20 -23h-105l-20 25 q43 154 159 233.5t320 79.5q214 0 332.5 -99t118.5 -274q0 -263 -279 -344v-4q149 -27 228 -112.5t79 -223.5q0 -200 -127 -308.5t-364 -108.5q-224 0 -347.5 77.5t-156.5 245.5z" />
<glyph unicode="4" d="M61 346v113l709 954l33 21h86l20 -21v-944l21 -20h184l21 -21v-82l-21 -20h-184l-21 -21v-285l-20 -20h-90l-21 20v285l-20 21h-676zM203 449h555l20 20v754z" />
<glyph unicode="5" d="M80 303l20 23h103l20 -29q35 -107 119 -151t238 -44q165 0 262.5 95t97.5 245q0 144 -94.5 230t-261.5 86q-90 0 -161 -18.5t-144 -65.5h-119l-21 20l60 719l22 21h742l20 -21v-82l-22 -20h-629l-21 -21l-39 -506q125 90 328 90q137 0 245 -55t167 -154t59 -223 q0 -132 -61 -238.5t-172.5 -165t-255.5 -58.5q-224 0 -351 81.5t-151 241.5z" />
<glyph unicode="6" d="M86 678q0 239 65.5 415.5t188 268.5t287.5 92q337 0 430 -276l-17 -17h-104l-23 17q-45 82 -110.5 117.5t-169.5 35.5q-196 0 -302 -168t-106 -483q64 85 176 134.5t240 49.5t232.5 -53.5t163.5 -151t59 -217.5q0 -213 -130 -337.5t-356 -124.5q-249 0 -386.5 182 t-137.5 516zM260 463q0 -97 46 -181t126.5 -132t179.5 -48q161 0 252.5 89t91.5 241q0 140 -89 223.5t-242 83.5q-101 0 -184.5 -33.5t-132 -96t-48.5 -146.5z" />
<glyph unicode="7" d="M82 1331v82l20 21h945l20 -21v-98l-649 -1315h-86l-21 20v70l613 1221h-822z" />
<glyph unicode="8" d="M84 395q0 263 301 357v4q-126 34 -197 122.5t-71 204.5q0 109 56.5 194t162.5 131t250 46q224 0 347.5 -98t123.5 -275q0 -112 -72.5 -201.5t-193.5 -123.5v-4q294 -80 294 -353q0 -200 -131 -309.5t-368 -109.5q-241 0 -371.5 109.5t-130.5 305.5zM221 395 q0 -145 96.5 -220t278.5 -75q180 0 269 73.5t89 227.5q0 136 -98.5 214.5t-273.5 78.5q-111 0 -192.5 -37.5t-125 -105.5t-43.5 -156zM256 1077q0 -78 39.5 -139.5t115.5 -96t181 -34.5q156 0 243 70.5t87 197.5q0 126 -85 193t-249 67q-160 0 -246 -67t-86 -191z" />
<glyph unicode="9" d="M72 999q0 208 128.5 331.5t354.5 123.5q248 0 387 -181.5t139 -508.5q0 -242 -64 -419.5t-184 -271t-280 -93.5q-186 0 -297 75.5t-150 212.5l19 17h102l21 -17q45 -91 117 -128.5t184 -37.5q189 0 291 168.5t102 483.5q-66 -84 -172.5 -133.5t-230.5 -49.5 q-135 0 -242.5 54t-166 152t-58.5 222zM211 1001q0 -141 92.5 -224t249.5 -83q96 0 179 34.5t131 97.5t48 147q0 92 -48 176t-130 133t-178 49q-161 0 -252.5 -88t-91.5 -242z" />
<glyph unicode=":" horiz-adv-x="348" d="M92 20v140l21 20h123l20 -20v-140l-20 -20h-123zM92 870v140l21 20h123l20 -20v-140l-20 -20h-123z" />
<glyph unicode=";" horiz-adv-x="348" d="M92 20v140l21 20h123l20 -20v-92q0 -200 -55 -328l-27 -21h-55l-21 21q24 53 40 108t22 132l-21 20h-26zM92 870v140l21 20h123l20 -20v-140l-20 -20h-123z" />
<glyph unicode="&#x3c;" d="M68 641v78l20 29l993 456l21 -12v-90l-21 -29l-864 -393l864 -395l21 -29v-86l-21 -12l-993 454z" />
<glyph unicode="=" d="M68 371v82l20 20h991l21 -20v-82l-21 -21h-991zM68 911v82l20 21h991l21 -21v-82l-21 -20h-991z" />
<glyph unicode="&#x3e;" d="M68 170v86l20 29l864 395l-864 393l-20 29v90l20 12l993 -456l21 -29v-78l-21 -29l-993 -454z" />
<glyph unicode="?" horiz-adv-x="946" d="M37 1071q23 188 138.5 285.5t309.5 97.5q190 0 307 -102.5t117 -270.5q0 -75 -22 -134.5t-61.5 -111.5t-149.5 -149q-104 -91 -142 -151t-47 -127l-20 -21h-88l-10 21q8 72 34 131t66.5 111t124.5 126q92 84 121.5 123.5t46 83.5t16.5 98q0 112 -82 185t-213 73 q-136 0 -219.5 -73t-91.5 -195l-20 -20h-95zM344 20v150l21 20h133l20 -20v-150l-20 -20h-133z" />
<glyph unicode="@" horiz-adv-x="1892" d="M100 602q0 246 108.5 446.5t308.5 312.5t456 112q246 0 432.5 -103t288.5 -293.5t102 -435.5q0 -238 -95 -372t-259 -134q-70 0 -119 18t-81.5 46t-65.5 88h-7q-46 -71 -123 -111.5t-167 -40.5q-163 0 -253.5 120.5t-90.5 336.5t96 335.5t270 119.5q90 0 150 -27.5 t110 -89.5h6v82l21 24h80l20 -22v-608q0 -73 45.5 -118.5t114.5 -45.5q105 0 164 106.5t59 292.5q0 211 -88 376.5t-245 254t-365 88.5q-218 0 -387 -95.5t-263 -270.5t-94 -396q0 -229 89 -410t253.5 -282t376.5 -101q152 0 280 36t206 100l24 20h113l12 -20 q-73 -117 -240.5 -182.5t-394.5 -65.5q-248 0 -441.5 113.5t-300 325t-106.5 470.5zM664 592q0 -168 63 -256t180 -88q116 0 185 73t69 199v160q0 122 -68.5 190t-185.5 68q-119 0 -181 -90t-62 -256z" />
<glyph unicode="A" horiz-adv-x="1212" d="M41 20v80l518 1313l21 21h53l20 -21l518 -1313v-80l-20 -20h-84l-135 346l-27 21h-598l-28 -21l-134 -346h-84zM340 506l14 -17h504l14 17l-266 688z" />
<glyph unicode="B" horiz-adv-x="1272" d="M154 20v1393l20 21h483q212 0 334.5 -95.5t122.5 -259.5q0 -128 -60 -207.5t-188 -126.5v-8q155 -27 229 -110t74 -226q0 -181 -131.5 -291t-339.5 -110h-524zM285 145l20 -20h369q187 0 273.5 73.5t86.5 219.5q0 131 -91 194.5t-286 63.5h-352l-20 -21v-510zM285 819 l20 -20h354q318 0 318 262q0 248 -330 248h-342l-20 -21v-469z" />
<glyph unicode="C" horiz-adv-x="1395" d="M102 717q0 225 75 392.5t218 256t338 88.5q241 0 382.5 -98.5t178.5 -288.5l-20 -16h-98l-21 18q-45 141 -144 201.5t-280 60.5q-232 0 -360.5 -160.5t-128.5 -453.5t129 -454t366 -161q334 0 422 285l21 25h102l21 -19q-58 -211 -199 -312t-371 -101q-197 0 -339 89 t-217 256.5t-75 391.5z" />
<glyph unicode="D" horiz-adv-x="1393" d="M154 20v1393l20 21h434q324 0 503 -183t179 -514q0 -353 -173.5 -545t-491.5 -192h-451zM285 145l20 -20h313q268 0 400.5 151t132.5 467q0 270 -140 418t-397 148h-309l-20 -21v-1143z" />
<glyph unicode="E" horiz-adv-x="1042" d="M154 20v1393l20 21h766l21 -21v-82l-21 -20h-635l-20 -21v-471l20 -20h569l21 -21v-82l-21 -20h-569l-20 -21v-512l20 -20h635l21 -21v-82l-21 -20h-766z" />
<glyph unicode="F" horiz-adv-x="1022" d="M154 20v1393l20 21h766l21 -21v-82l-21 -20h-635l-20 -21v-471l20 -20h569l21 -21v-82l-21 -20h-569l-20 -21v-635l-21 -20h-90z" />
<glyph unicode="G" horiz-adv-x="1442" d="M102 717q0 343 167.5 540t463.5 197q231 0 369.5 -88.5t193.5 -280.5l-20 -18h-107l-20 14q-33 96 -84 147t-133 77t-201 26q-235 0 -362 -160t-127 -454q0 -289 129 -452t366 -163q329 0 451 289v164l-21 20h-266l-20 21v82l20 20h397l21 -20v-658l-21 -20h-90l-20 20 v179q-148 -219 -455 -219q-298 0 -464.5 196.5t-166.5 540.5z" />
<glyph unicode="H" horiz-adv-x="1372" d="M154 20v1393l20 21h90l21 -21v-594l20 -20h762l20 20v594l21 21h90l21 -21v-1393l-21 -20h-90l-21 20v635l-20 21h-762l-20 -21v-635l-21 -20h-90z" />
<glyph unicode="I" horiz-adv-x="438" d="M154 20v1393l20 21h90l21 -21v-1393l-21 -20h-90z" />
<glyph unicode="J" horiz-adv-x="952" d="M51 315l21 19h104l21 -19q14 -108 80 -160.5t163 -52.5q119 0 178.5 78t59.5 226v1007l20 21h90l21 -21v-993q0 -210 -96.5 -325t-272.5 -115q-173 0 -271.5 86.5t-117.5 248.5z" />
<glyph unicode="K" horiz-adv-x="1126" d="M154 20v1393l20 21h90l21 -21v-653l688 674h59l21 -21v-84l-604 -573v-13l636 -641v-82l-20 -20h-64l-716 734v-714l-21 -20h-90z" />
<glyph unicode="L" horiz-adv-x="1012" d="M154 20v1393l20 21h90l21 -21v-1270l20 -20h635l21 -21v-82l-21 -20h-766z" />
<glyph unicode="M" horiz-adv-x="1681" d="M154 20v1393l20 21h107l28 -21l471 -1083q46 -99 64 -172q24 75 61 161l467 1094l29 21h106l21 -21v-1393l-21 -20h-84l-20 20v908q0 107 6 293q-43 -130 -100 -256l-404 -945l-28 -20h-68l-29 20l-403 928q-74 161 -107 273l4 -293v-908l-20 -20h-80z" />
<glyph unicode="N" horiz-adv-x="1360" d="M154 20v1393l20 21h70l32 -21l822 -1198q-2 42 -6.5 109t-4.5 170v919l21 21h78l20 -21v-1393l-20 -20h-74l-33 20l-815 1190q10 -155 10 -258v-932l-20 -20h-80z" />
<glyph unicode="O" horiz-adv-x="1475" d="M102 717q0 347 167 542t468 195t468 -195t167 -542q0 -345 -165.5 -541t-469.5 -196q-301 0 -468 195t-167 542zM242 717q0 -296 129 -455.5t366 -159.5t366.5 160.5t129.5 454.5q0 295 -130 454.5t-366 159.5t-365.5 -158.5t-129.5 -455.5z" />
<glyph unicode="P" horiz-adv-x="1143" d="M154 20v1393l20 21h381q238 0 361.5 -108.5t123.5 -311.5q0 -212 -123.5 -322t-365.5 -110h-246l-20 -21v-541l-21 -20h-90zM285 725l20 -20h248q180 0 265 82t85 231q0 291 -336 291h-262l-20 -21v-563z" />
<glyph unicode="Q" horiz-adv-x="1475" d="M102 717q0 347 167 542t468 195t468 -195t167 -542q0 -323 -149 -520l145 -125v-72l-20 -20h-64l-147 126q-157 -126 -400 -126q-301 0 -468 195t-167 542zM242 717q0 -296 129 -455.5t366 -159.5q181 0 299 93l-164 143v72l21 20h63l166 -145q111 158 111 432 q0 295 -130 454.5t-366 159.5t-365.5 -158.5t-129.5 -455.5z" />
<glyph unicode="R" horiz-adv-x="1161" d="M154 20v1393l20 21h381q485 0 485 -400q0 -151 -89.5 -260t-235.5 -141l385 -539v-74l-21 -20h-73l-441 623h-260l-20 -21v-582l-21 -20h-90zM285 766l20 -21h281q317 0 317 289q0 145 -83.5 210t-252.5 65h-262l-20 -21v-522z" />
<glyph unicode="S" horiz-adv-x="1206" d="M80 330l20 26h101l22 -24q33 -126 118.5 -178t266.5 -52q178 0 276.5 74t98.5 205q0 76 -27 122.5t-91 80t-271 92.5q-96 27 -181.5 56t-150 73t-102 109.5t-37.5 166.5q0 178 121 275.5t342 97.5q201 0 328.5 -84.5t164.5 -247.5l-20 -18h-101l-20 20 q-33 107 -119.5 157t-232.5 50q-160 0 -246 -61t-86 -185q0 -79 32 -126t107 -82.5t250 -81.5q215 -57 300 -107t128 -123.5t43 -183.5q0 -115 -62 -206.5t-179 -143t-275 -51.5q-239 0 -364 87t-154 263z" />
<glyph unicode="T" horiz-adv-x="1098" d="M20 1331v82l21 21h1016l20 -21v-82l-20 -20h-422l-21 -21v-1270l-20 -20h-90l-21 20v1270l-20 21h-422z" />
<glyph unicode="U" horiz-adv-x="1391" d="M143 537v876l21 21h90l20 -21v-889q0 -204 106 -312t306 -108q208 0 319 108.5t111 313.5v887l21 21h90l20 -21v-862q0 -273 -148 -422t-417 -149q-259 0 -399 143t-140 414z" />
<glyph unicode="V" horiz-adv-x="1171" d="M41 1333v80l20 21h84l441 -1194l440 1194h84l20 -21v-80l-497 -1313l-21 -20h-53l-20 20z" />
<glyph unicode="W" horiz-adv-x="1985" d="M41 1333v80l20 21h84l400 -1194l391 1173l29 21h55l29 -21l391 -1173l399 1194h84l21 -21v-80l-457 -1313l-21 -20h-53l-20 20l-402 1192l-399 -1192l-21 -20h-53l-20 20z" />
<glyph unicode="X" horiz-adv-x="1100" d="M41 20v84l424 635v29l-383 561v84l20 21h70l379 -588l377 588h69l21 -21v-84l-375 -563v-27l416 -635v-84l-21 -20h-69l-418 649l-420 -649h-70z" />
<glyph unicode="Y" horiz-adv-x="1087" d="M41 1337v76l20 21h72l412 -666l416 666h65l21 -21v-76l-439 -690v-627l-20 -20h-90l-21 20v627z" />
<glyph unicode="Z" horiz-adv-x="1188" d="M70 20v78l823 1213h-725l-21 20v82l21 21h870l21 -21v-74l-823 -1216h860l20 -21v-82l-20 -20h-1006z" />
<glyph unicode="[" horiz-adv-x="635" d="M154 -424v1878l20 19h389l21 -19v-76l-21 -20h-256l-20 -21v-1644l20 -21h256l21 -20v-76l-21 -18h-389z" />
<glyph unicode="\" horiz-adv-x="786" d="M29 1452l16 21h84l25 -21l602 -1432l-15 -20h-88l-26 20z" />
<glyph unicode="]" horiz-adv-x="635" d="M51 -348l21 20h256l20 21v1644l-20 21h-256l-21 20v76l21 19h389l20 -19v-1878l-20 -18h-389l-21 18v76z" />
<glyph unicode="^" d="M150 559l372 854l29 21h65l29 -21l375 -854l-12 -20h-80l-29 20l-315 737l-318 -737l-28 -20h-76z" />
<glyph unicode="_" horiz-adv-x="1024" d="M-20 -199l20 21h1024l20 -21v-55l-20 -20h-1024l-20 20v55z" />
<glyph unicode="`" horiz-adv-x="621" d="M123 1419l20 43h142l233 -288l-20 -31h-74z" />
<glyph unicode="a" horiz-adv-x="1085" d="M82 295q0 309 434 309q108 0 255 -14l48 -4l17 20q0 181 -68 257.5t-221 76.5q-133 0 -198 -32t-87 -103l-20 -17h-95l-20 17q16 113 128 179.5t288 66.5q218 0 319 -102.5t101 -319.5v-609l-21 -20h-84l-18 20v162h-6q-75 -114 -167 -158t-221 -44q-175 0 -269.5 79 t-94.5 236zM217 297q0 -112 61 -160.5t195 -48.5q173 0 268 99.5t95 277.5l-17 22q-167 17 -295 17q-170 0 -238.5 -47.5t-68.5 -159.5z" />
<glyph unicode="b" horiz-adv-x="1163" d="M135 20v1432l23 21h82l22 -21v-387l-5 -111l-5 -67h4q120 162 342 162q226 0 354.5 -140.5t128.5 -390.5q0 -249 -128 -392.5t-349 -143.5q-220 0 -342 157h-4v-119l-18 -20h-82zM262 397q0 -146 89.5 -225.5t250.5 -79.5q170 0 260 110.5t90 317.5q0 203 -91.5 311.5 t-256.5 108.5q-163 0 -252.5 -80.5t-89.5 -224.5v-238z" />
<glyph unicode="c" horiz-adv-x="1069" d="M82 520q0 250 129.5 390.5t353.5 140.5q353 0 414 -293l-12 -17h-99l-22 19q-29 95 -94.5 137.5t-186.5 42.5q-354 0 -354 -422q0 -203 93.5 -314.5t260.5 -111.5q128 0 200 47t105 154l15 16h90l12 -16q-58 -313 -426 -313q-223 0 -351 142t-128 398z" />
<glyph unicode="d" horiz-adv-x="1163" d="M82 518q0 247 128 389t355 142q222 0 342 -162h4q-10 113 -10 178v387l23 21h82l22 -21v-1432l-22 -20h-82l-19 20v119h-4q-122 -157 -342 -157q-221 0 -349 144t-128 392zM211 520q0 -209 91.5 -318.5t258.5 -109.5q163 0 251.5 80.5t88.5 224.5v238q0 147 -90 226 t-252 79q-165 0 -256.5 -108.5t-91.5 -311.5z" />
<glyph unicode="e" horiz-adv-x="1110" d="M82 520q0 165 58.5 284t167 183t247.5 64q223 0 348 -129.5t125 -366.5v-55l-24 -21h-773l-20 -20q26 -367 350 -367q115 0 185.5 37t115.5 121l21 16h94l14 -18q-45 -131 -157.5 -199.5t-274.5 -68.5q-229 0 -353 143t-124 397zM217 610l21 -20h636l21 20 q-11 162 -97.5 246t-240.5 84t-245 -90t-95 -240z" />
<glyph unicode="f" horiz-adv-x="561" d="M51 936v68l21 20h94l20 20v111q0 168 67.5 243t205.5 75h71l21 -21v-70l-21 -20h-69q-77 0 -112.5 -48.5t-35.5 -158.5v-111l21 -20h196l21 -20v-68l-21 -21h-196l-21 -22v-873l-20 -20h-86l-21 20v875l-20 20h-94z" />
<glyph unicode="g" horiz-adv-x="1163" d="M82 512q0 253 126.5 395t356.5 142q200 0 336 -138h8v99l19 20h80l20 -20v-981q0 -245 -114.5 -365.5t-327.5 -120.5q-208 0 -313.5 55.5t-135.5 176.5l21 18h96l18 -14q35 -68 112 -96.5t200 -28.5q166 0 243.5 88t77.5 266l4 131h-8q-122 -157 -342 -157t-348.5 145 t-128.5 385zM211 516q0 -201 90.5 -312.5t259.5 -111.5q165 0 252.5 81t87.5 235v227q0 145 -90 225t-252 80q-166 0 -257 -109.5t-91 -314.5z" />
<glyph unicode="h" horiz-adv-x="1120" d="M135 20v1432l21 21h86l20 -21v-408l-4 -151h4q134 158 348 158q184 0 285.5 -105t101.5 -295v-631l-20 -20h-82l-25 20v617q0 303 -282 303q-155 0 -240.5 -83.5t-85.5 -240.5v-596l-20 -20h-86z" />
<glyph unicode="i" horiz-adv-x="397" d="M135 20v990l21 20h86l20 -20v-990l-20 -20h-86zM135 1278v174l21 21h86l20 -21v-174l-20 -21h-86z" />
<glyph unicode="j" horiz-adv-x="397" d="M-74 -350l21 20h57q72 0 101.5 50t29.5 174v1116l21 20h86l20 -20v-1108q0 -183 -54.5 -263.5t-180.5 -80.5h-80l-21 20v72zM135 1278v174l21 21h86l20 -21v-174l-20 -21h-86z" />
<glyph unicode="k" horiz-adv-x="956" d="M135 20v1432l21 21h86l20 -21v-917l524 495h74l21 -20v-64l-447 -405v-21l471 -438v-62l-20 -20h-76l-547 520v-500l-20 -20h-86z" />
<glyph unicode="l" horiz-adv-x="502" d="M125 334v1118l20 21h86l21 -21v-1126q0 -122 29.5 -173t101.5 -51h78l20 -20v-72l-20 -20h-101q-127 0 -181 80.5t-54 263.5z" />
<glyph unicode="m" horiz-adv-x="1815" d="M135 20v990l21 20h82l20 -20v-117h4q72 85 158 121.5t190 36.5q115 0 197 -44.5t127 -125.5h16q136 170 373 170q182 0 275.5 -102.5t93.5 -295.5v-633l-21 -20h-82l-24 20v617q0 161 -65 232t-197 71q-155 0 -238.5 -80.5t-87.5 -226.5v-613l-21 -20h-84l-22 20v617 q0 161 -66 232t-198 71q-157 0 -240.5 -84t-83.5 -240v-596l-20 -20h-86z" />
<glyph unicode="n" horiz-adv-x="1120" d="M135 20v990l21 20h82l20 -20v-117h4q134 158 348 158q183 0 285 -103t102 -295v-633l-20 -20h-82l-25 20v617q0 303 -280 303q-159 0 -243.5 -85.5t-84.5 -238.5v-596l-20 -20h-86z" />
<glyph unicode="o" horiz-adv-x="1130" d="M82 518q0 245 127.5 389t355.5 144q233 0 358.5 -138.5t125.5 -394.5q0 -250 -130 -394t-358 -144q-222 0 -350.5 145.5t-128.5 392.5zM211 518q0 -205 91.5 -315.5t256.5 -110.5q177 0 268 107.5t91 318.5q0 204 -89 313t-260 109q-176 0 -267 -107.5t-91 -314.5z" />
<glyph unicode="p" horiz-adv-x="1163" d="M135 -422v1432l23 20h82l18 -20v-119h4q123 158 342 158q222 0 349.5 -145t127.5 -392q0 -248 -128.5 -389t-354.5 -141q-223 0 -342 161h-4l5 -67l5 -111v-387l-22 -20h-82zM262 395q0 -144 89.5 -224.5t252.5 -80.5q165 0 256.5 108.5t91.5 311.5q0 207 -90.5 317.5 t-259.5 110.5q-161 0 -250.5 -79.5t-89.5 -225.5v-238z" />
<glyph unicode="q" horiz-adv-x="1163" d="M82 512q0 248 127.5 392.5t349.5 144.5q219 0 342 -158h4v119l19 20h82l22 -20v-1432l-22 -20h-82l-23 20v387q0 65 10 178h-4q-119 -161 -342 -161q-226 0 -354.5 141.5t-128.5 388.5zM211 510q0 -203 91.5 -311.5t256.5 -108.5q162 0 252 79.5t90 225.5v238 q0 145 -89 225t-251 80q-167 0 -258.5 -109.5t-91.5 -318.5z" />
<glyph unicode="r" horiz-adv-x="653" d="M135 20v990l21 20h77l21 -20v-136h4q62 85 140 131t161 46h43l21 -21v-88l-21 -20h-63q-77 0 -140.5 -36.5t-100 -105t-36.5 -162.5v-598l-20 -20h-86z" />
<glyph unicode="s" horiz-adv-x="1036" d="M82 229l20 21h95l20 -23q32 -76 105.5 -106.5t214.5 -30.5q146 0 224.5 44.5t78.5 125.5q0 76 -67.5 118t-248.5 85q-175 42 -256.5 83t-120 96t-38.5 138q0 130 103 200.5t294 70.5q185 0 293 -64.5t129 -193.5l-21 -21h-90l-24 25q-27 80 -93 112.5t-194 32.5 q-281 0 -281 -156q0 -76 63 -117t253 -87q180 -45 258.5 -84t116.5 -93t38 -133q0 -144 -109.5 -218t-312.5 -74q-202 0 -312.5 60t-137.5 189z" />
<glyph unicode="t" horiz-adv-x="602" d="M51 932v72l21 20h94l20 20v220l21 20h86l20 -20v-220l21 -20h196l21 -20v-72l-21 -21h-196l-21 -20v-565q0 -122 29.5 -173t101.5 -51h78l21 -20v-72l-21 -20h-100q-128 0 -182 81t-54 263v557l-20 20h-94z" />
<glyph unicode="u" horiz-adv-x="1120" d="M123 377v633l20 20h82l25 -20v-617q0 -303 280 -303q159 0 243.5 85.5t84.5 238.5v596l21 20h86l20 -20v-990l-20 -20h-82l-21 20v117h-4q-72 -82 -156 -119.5t-192 -37.5q-183 0 -285 103t-102 294z" />
<glyph unicode="v" horiz-adv-x="987" d="M51 946v64l21 20h88l334 -829l335 829h86l21 -20v-64l-395 -926l-21 -20h-53l-21 20z" />
<glyph unicode="w" horiz-adv-x="1675" d="M51 946v64l21 20h88l313 -829l307 809l21 20h73l21 -20l307 -809l316 829h86l20 -20v-64l-375 -926l-20 -20h-53l-21 20l-317 832l-318 -832l-20 -20h-54l-20 20z" />
<glyph unicode="x" horiz-adv-x="1016" d="M61 20v62l349 438v21l-324 405v64l20 20h74l328 -428l328 428h73l21 -20v-64l-324 -405v-21l348 -438v-62l-20 -20h-76l-350 459l-350 -459h-76z" />
<glyph unicode="y" horiz-adv-x="987" d="M51 946v64l21 20h88l340 -876l329 876h86l21 -20v-64l-375 -950q-105 -257 -173 -343.5t-155 -86.5h-112l-21 20v86l21 21h72q75 0 126.5 69t114.5 244z" />
<glyph unicode="z" horiz-adv-x="1010" d="M82 20v72l657 826h-622l-21 20v72l21 20h770l20 -20v-72l-655 -825h655l21 -21v-72l-21 -20h-805z" />
<glyph unicode="{" horiz-adv-x="686" d="M29 473v80l20 20q211 9 211 230v338q0 171 69.5 251.5t217.5 80.5h96l21 -19v-76l-21 -20h-76q-92 0 -133 -43t-41 -146v-401q0 -95 -57 -164t-148 -88v-4q87 -19 146 -102t59 -187v-360q0 -103 39.5 -147t134.5 -44h76l21 -20v-74l-21 -20h-139q-109 0 -176.5 89 t-67.5 242v334q0 221 -211 230z" />
<glyph unicode="|" horiz-adv-x="500" d="M195 -434v1888l20 19h70l20 -19v-1888l-20 -21h-70z" />
<glyph unicode="}" horiz-adv-x="686" d="M23 1378v76l20 19h96q148 0 217.5 -80t69.5 -252v-338q0 -221 211 -230l20 -20v-80l-20 -20q-211 -9 -211 -230v-334q0 -152 -67 -241.5t-177 -89.5h-139l-20 20v74l20 20h76q95 0 134.5 44.5t39.5 146.5v360q0 104 59 187t146 102v4q-91 20 -148 88.5t-57 163.5v401 q0 103 -40.5 146t-133.5 43h-76z" />
<glyph unicode="~" d="M63 606v86l21 33q108 70 248 70q85 0 166.5 -23t158.5 -49q124 -45 199 -45q112 0 229 78l21 -8v-89l-21 -32q-62 -38 -115 -53t-134 -15q-76 0 -149 22t-148 48q-129 45 -222 45q-59 0 -114 -16.5t-119 -59.5z" />
<glyph unicode="&#xa1;" horiz-adv-x="348" d="M92 870v140l21 20h123l20 -20v-140l-20 -20h-123zM109 78l14 565l22 21h56l22 -21l17 -565v-461l-21 -20h-90l-20 20v461z" />
<glyph unicode="&#xa2;" d="M145 698q0 226 106.5 363t293.5 162l22 18v150l21 18h69l21 -18v-152l18 -14q292 -27 346 -289l-12 -16h-98l-23 18q-29 95 -94 137.5t-186 42.5q-355 0 -355 -422q0 -201 94 -313.5t261 -112.5q128 0 200 47t105 154l14 16h90l13 -16q-29 -145 -118 -221.5t-239 -89.5 l-16 -17v-153l-21 -21h-69l-21 21v153l-16 19q-191 21 -298.5 162.5t-107.5 373.5z" />
<glyph unicode="&#xa3;" horiz-adv-x="1210" d="M74 682v74l20 22h125l21 23v160q0 493 442 493q179 0 285 -74t131 -215l-21 -24h-92l-20 24q-23 87 -92.5 127.5t-190.5 40.5q-164 0 -237.5 -89t-73.5 -288v-153l20 -25h279l20 -26v-70l-20 -25h-279l-20 -26v-164q0 -255 -109 -344h453q245 0 297 237l20 21h88l21 -21 q-15 -153 -119.5 -256.5t-255.5 -103.5h-662l-20 20v80l18 21q70 33 104 109t34 221v186l-21 22h-125z" />
<glyph unicode="&#xa4;" horiz-adv-x="946" d="M72 344v33l96 92l-8 8q-62 112 -62 207q0 112 70 209l-96 96v33l55 55h31l98 -96q95 72 217 72q56 0 115.5 -18t99.5 -52l98 94h31l53 -55v-33l-92 -92q70 -114 70 -213q0 -48 -19.5 -111t-50.5 -104l96 -94v-33l-55 -55h-31l-100 96q-38 -33 -97.5 -52.5t-117.5 -19.5 q-108 0 -207 64l-8 8l-100 -96h-31zM205 684q0 -111 79.5 -188.5t188.5 -77.5q110 0 188 78t78 188q0 109 -79 187.5t-187 78.5q-110 0 -189 -77.5t-79 -188.5z" />
<glyph unicode="&#xa5;" d="M82 1337v76l20 21h72l412 -666l415 666h66l20 -21v-76l-405 -639h279l20 -20v-70l-20 -20h-289l-23 -21v-149l23 -21h289l20 -20v-70l-20 -20h-291l-21 -21v-246l-20 -20h-90l-21 20v246l-20 21h-293l-21 20v70l21 20h293l20 21v149l-18 21h-295l-21 20v70l21 20h280z " />
<glyph unicode="&#xa6;" horiz-adv-x="500" d="M195 336l20 18h70l20 -18v-758l-20 -20h-70l-20 20v758zM195 696v758l20 19h70l20 -19v-758l-20 -20h-70z" />
<glyph unicode="&#xa7;" horiz-adv-x="1163" d="M174 801q0 152 207 213q-94 32 -140 85.5t-46 135.5q0 116 96.5 177t288.5 61q176 0 280.5 -66.5t124.5 -189.5l-10 -21h-113l-20 23q-30 77 -92.5 111t-171.5 34q-137 0 -200 -35.5t-63 -95.5q0 -53 28 -82t93 -51.5t180 -42.5q205 -35 299.5 -97.5t94.5 -171.5 q0 -158 -189 -223q88 -29 132 -77.5t44 -129.5q0 -129 -101 -195.5t-288 -66.5q-194 0 -297 61.5t-129 190.5l8 25h99l33 -25q33 -80 98 -111.5t184 -31.5q138 0 206.5 39.5t68.5 113.5q0 65 -65 99.5t-247 68.5q-220 41 -306.5 102.5t-86.5 172.5zM289 805q0 -48 31 -79 t101 -53t241 -50q104 6 166.5 49.5t62.5 109.5q0 46 -33.5 75.5t-108 53t-225.5 50.5q-103 -9 -169 -52t-66 -104z" />
<glyph unicode="&#xa8;" horiz-adv-x="715" d="M72 1200v125l20 21h125l21 -21v-125l-21 -20h-125zM477 1200v125l21 21h125l20 -21v-125l-20 -20h-125z" />
<glyph unicode="&#xa9;" horiz-adv-x="1565" d="M59 707q0 191 95 357.5t263.5 266t364.5 99.5q194 0 362.5 -97.5t264.5 -264.5t96 -361q0 -193 -96.5 -361.5t-265 -265t-361.5 -96.5q-197 0 -366.5 100.5t-263 267t-93.5 355.5zM162 707q0 -168 86 -314t230.5 -226.5t303.5 -80.5q166 0 310 83.5t227.5 228t83.5 309.5 q0 170 -85.5 312.5t-227.5 224t-308 81.5q-167 0 -310 -83t-226.5 -226.5t-83.5 -308.5zM406 707q0 194 104.5 303.5t282.5 109.5q136 0 222 -63t109 -180l-8 -13h-98l-17 15q-22 75 -70 107t-138 32q-139 0 -203 -79t-64 -232q0 -155 68.5 -236.5t198.5 -81.5q95 0 147 34 t80 124l10 12h92l8 -12q-22 -125 -111 -192.5t-231 -67.5q-178 0 -280 113t-102 307z" />
<glyph unicode="&#xaa;" horiz-adv-x="866" d="M102 942q0 225 312 225q63 0 202 -12l5 6q-2 114 -46.5 161.5t-138.5 47.5q-83 0 -122.5 -21.5t-59.5 -70.5l-21 -21h-75l-23 21q10 86 89.5 140.5t207.5 54.5q158 0 229.5 -74.5t71.5 -229.5v-419l-22 -23h-70l-20 23v92q-99 -129 -254 -129q-127 0 -196 56.5t-69 172.5 zM223 944q0 -70 38 -99.5t124 -29.5q113 0 173.5 63.5t62.5 176.5l-5 6l-49 5q-69 7 -147 7q-101 0 -149 -28t-48 -101z" />
<glyph unicode="&#xab;" horiz-adv-x="995" d="M59 500v75l338 365h103l20 -39l-336 -364l338 -361l-20 -35h-105zM473 500v75l338 365h102l21 -39l-336 -364l338 -361l-21 -35h-104z" />
<glyph unicode="&#xac;" d="M68 641v82l20 20h991l21 -20v-567l-21 -21h-86l-20 21v444l-21 21h-864z" />
<glyph unicode="&#xad;" horiz-adv-x="707" d="M94 510v70l21 20h481l20 -20v-70l-20 -21h-481z" />
<glyph unicode="&#xae;" horiz-adv-x="1565" d="M59 707q0 191 95 357.5t263.5 266t364.5 99.5q194 0 362.5 -97.5t264.5 -264.5t96 -361q0 -193 -96.5 -361.5t-265 -265t-361.5 -96.5q-197 0 -366.5 100.5t-263 267t-93.5 355.5zM162 707q0 -168 86 -314t230.5 -226.5t303.5 -80.5q166 0 310 83.5t227.5 228t83.5 309.5 q0 170 -85.5 312.5t-227.5 224t-308 81.5q-167 0 -310 -83t-226.5 -226.5t-83.5 -308.5zM487 305v795l13 10h323q149 0 220 -65.5t71 -176.5q0 -79 -47 -139t-127 -86l178 -254v-84l-12 -10h-66l-229 332h-190l-13 -13v-309l-12 -10h-96zM608 745l13 -12h219q73 0 112 34.5 t39 100.5q0 57 -38 96.5t-113 39.5h-219l-13 -13v-246z" />
<glyph unicode="&#xaf;" horiz-adv-x="682" d="M27 1200v84l20 21h584l20 -21v-84l-20 -20h-584z" />
<glyph unicode="&#xb0;" horiz-adv-x="805" d="M78 1112q0 133 93.5 226.5t229.5 93.5q138 0 232 -93.5t94 -226.5t-95 -226t-231 -93q-132 0 -227.5 92.5t-95.5 226.5zM172 1112q0 -95 66 -163t163 -68t163.5 68t66.5 163q0 97 -66.5 164t-163.5 67t-163 -66.5t-66 -164.5z" />
<glyph unicode="&#xb1;" d="M68 21v82l20 20h991l21 -20v-82l-21 -20h-991zM68 764v82l20 20h412l20 21v420l21 20h86l20 -20v-420l21 -21h411l21 -20v-82l-21 -20h-411l-21 -21v-422l-20 -20h-86l-21 20v422l-20 21h-412z" />
<glyph unicode="&#xb2;" horiz-adv-x="801" d="M106 1227q20 98 104.5 158.5t205.5 60.5q127 0 201.5 -62.5t74.5 -173.5q0 -58 -17 -103.5t-47.5 -86.5t-71.5 -80l-91 -86l-203 -178h428l12 -12v-78l-12 -13h-563l-12 13v86l258 235q142 131 174.5 180.5t32.5 114.5t-43 103t-123 38q-74 0 -120 -26t-75 -90l-10 -13 h-90z" />
<glyph unicode="&#xb3;" horiz-adv-x="770" d="M80 768l26 27h72l23 -27q15 -60 62.5 -82t125.5 -22q193 0 193 157q0 66 -47.5 101.5t-131.5 35.5h-59l-25 11v84l25 16h55q81 0 122.5 35.5t41.5 99.5q0 137 -162 137q-151 0 -178 -102l-22 -25h-72l-23 25l-2 12q26 99 97 147t198 48q129 0 204 -62t75 -172 q0 -140 -133 -196q72 -25 110.5 -78t38.5 -119q0 -120 -77 -190t-226 -70q-132 0 -209 50.5t-102 158.5z" />
<glyph unicode="&#xb4;" horiz-adv-x="621" d="M123 1174l233 288h142l20 -43l-301 -276h-74z" />
<glyph unicode="&#xb5;" horiz-adv-x="1180" d="M135 -422v1432l21 20h86l20 -20v-639q0 -127 74.5 -204t198.5 -77q161 0 248 82.5t87 235.5v602l21 20h86l20 -20v-772q0 -119 90 -119h25l21 -21v-78l-21 -20h-45q-66 0 -117 36.5t-76 100.5h-4q-69 -81 -151 -119t-201 -38q-72 0 -139 26.5t-117 79.5v-508l-20 -20h-86 z" />
<glyph unicode="&#xb6;" horiz-adv-x="1124" d="M51 1077q0 168 98 262.5t273 94.5h604l31 -21v-82l-21 -20h-88l-20 -21v-1503l-21 -27h-90l-20 27v1503l-21 21h-211l-20 -21v-1503l-21 -27h-90l-20 27v911l-29 21q-160 9 -247 103.5t-87 254.5z" />
<glyph unicode="&#xb7;" horiz-adv-x="348" d="M92 651v140l21 20h123l20 -20v-140l-20 -20h-123z" />
<glyph unicode="&#xb8;" horiz-adv-x="584" d="M94 -358l21 20q31 -4 65 -4q83 0 132.5 26.5t49.5 75.5q0 97 -163 97h-29l-12 20l57 137h113l-31 -86q87 -8 137.5 -50.5t50.5 -115.5q0 -97 -74 -150.5t-212 -53.5h-22l-62 4l-21 20v60z" />
<glyph unicode="&#xb9;" horiz-adv-x="825" d="M131 1235v57l240 142h90l12 -13v-733l12 -12h174l13 -12v-78l-13 -13h-509l-13 13v78l13 12h200l12 12v617l-137 -82h-82z" />
<glyph unicode="&#xba;" horiz-adv-x="856" d="M84 1100q0 173 90.5 273t253.5 100q167 0 255.5 -96t88.5 -277q0 -178 -91.5 -278.5t-254.5 -100.5q-161 0 -251.5 103t-90.5 276zM199 1100q0 -132 58.5 -203.5t166.5 -71.5q231 0 231 275q0 130 -56.5 200t-168.5 70q-114 0 -172.5 -69.5t-58.5 -200.5z" />
<glyph unicode="&#xbb;" horiz-adv-x="993" d="M59 176l336 361l-334 364l21 39h102l338 -365v-75l-338 -359h-104zM471 176l336 361l-334 364l21 39h102l338 -365v-75l-338 -359h-104z" />
<glyph unicode="&#xbc;" horiz-adv-x="1698" d="M93 1235v57l240 142h90l12 -13v-733l12 -12h174l13 -12v-78l-13 -13h-509l-13 13v78l13 12h200l12 12v617l-137 -82h-82zM408 20l874 1393l25 21h82l16 -21l-870 -1393l-27 -20h-86zM950 220v78l416 557l24 17h64l20 -21v-543l6 -4h105l20 -20v-64l-20 -20h-107l-4 -2 v-166l-20 -21h-68l-20 21v166l-5 2h-391zM1069 304h292l5 4v400z" />
<glyph unicode="&#xbd;" horiz-adv-x="1825" d="M93 1235v57l240 142h90l12 -13v-733l12 -12h174l13 -12v-78l-13 -13h-509l-13 13v78l13 12h200l12 12v617l-137 -82h-82zM400 20l874 1393l25 21h82l16 -21l-870 -1393l-27 -20h-86zM1107 665q20 98 104.5 158.5t205.5 60.5q127 0 201.5 -62.5t74.5 -173.5 q0 -58 -17 -103.5t-47.5 -86.5t-72.5 -80l-90 -86l-203 -178h428l12 -12v-78l-12 -13h-563l-12 13v86l258 235q142 131 174.5 180.5t32.5 114.5t-43 103t-123 38q-74 0 -120 -26t-75 -90l-10 -13h-90z" />
<glyph unicode="&#xbe;" horiz-adv-x="1714" d="M80 768l26 27h72l23 -27q15 -60 62.5 -82t125.5 -22q193 0 193 157q0 66 -47.5 101.5t-131.5 35.5h-59l-25 11v84l25 16h55q81 0 122.5 35.5t41.5 99.5q0 137 -162 137q-151 0 -178 -102l-22 -25h-72l-23 25l-2 12q26 99 97 147t198 48q129 0 204 -62t75 -172 q0 -140 -133 -196q72 -25 110.5 -78t38.5 -119q0 -120 -77 -190t-226 -70q-132 0 -209 50.5t-102 158.5zM408 20l874 1393l25 21h82l16 -21l-870 -1393l-27 -20h-86zM967 220v78l416 557l24 17h64l20 -21v-543l6 -4h105l20 -20v-64l-20 -20h-107l-4 -2v-166l-20 -21h-68 l-20 21v166l-5 2h-391zM1086 304h292l5 4v400z" />
<glyph unicode="&#xbf;" horiz-adv-x="946" d="M45 -51q0 73 20.5 130t54 103.5t75.5 85.5l84 76q103 91 142 152.5t46 126.5l20 20h88l11 -20q-9 -73 -35 -131.5t-64 -108.5t-127 -129q-92 -84 -121.5 -123.5t-46 -83.5t-16.5 -98q0 -112 82 -185t213 -73q136 0 219.5 73t91.5 195l21 21h94l21 -21 q-22 -186 -137.5 -284.5t-311.5 -98.5q-190 0 -307 102.5t-117 270.5zM436 860v150l21 20h133l20 -20v-150l-20 -20h-133z" />
<glyph unicode="&#xc0;" horiz-adv-x="1212" d="M41 20v80l518 1313l21 21h53l20 -21l518 -1313v-80l-20 -20h-84l-135 346l-27 21h-598l-28 -21l-134 -346h-84zM299 1804l20 43h142l233 -288l-20 -31h-74zM340 506l14 -17h504l14 17l-266 688z" />
<glyph unicode="&#xc1;" horiz-adv-x="1212" d="M41 20v80l518 1313l21 21h53l20 -21l518 -1313v-80l-20 -20h-84l-135 346l-27 21h-598l-28 -21l-134 -346h-84zM340 506l14 -17h504l14 17l-266 688zM533 1559l233 288h142l20 -43l-301 -276h-74z" />
<glyph unicode="&#xc2;" horiz-adv-x="1212" d="M41 20v80l518 1313l21 21h53l20 -21l518 -1313v-80l-20 -20h-84l-135 346l-27 21h-598l-28 -21l-134 -346h-84zM299 1559l207 268l27 20h149l27 -20l207 -268l-21 -31h-73l-215 223l-213 -223h-74zM340 506l14 -17h504l14 17l-266 688z" />
<glyph unicode="&#xc3;" horiz-adv-x="1212" d="M41 20v80l518 1313l21 21h53l20 -21l518 -1313v-80l-20 -20h-84l-135 346l-27 21h-598l-28 -21l-134 -346h-84zM264 1552q7 124 52 180t128 56q74 0 180 -66q106 -67 138 -67q51 0 65 72l8 40l21 21h73l21 -21q-5 -101 -54 -168t-128 -67q-46 0 -89 21t-83 45l-74 46 q-35 21 -66 21q-23 0 -37 -10.5t-22 -28t-16 -74.5l-21 -20h-76zM340 506l14 -17h504l14 17l-266 688z" />
<glyph unicode="&#xc4;" horiz-adv-x="1212" d="M41 20v80l518 1313l21 21h53l20 -21l518 -1313v-80l-20 -20h-84l-135 346l-27 21h-598l-28 -21l-134 -346h-84zM322 1573v125l20 20h125l21 -20v-125l-21 -21h-125zM340 506l14 -17h504l14 17l-266 688zM727 1573v125l21 20h125l20 -20v-125l-20 -21h-125z" />
<glyph unicode="&#xc5;" horiz-adv-x="1212" d="M41 20v80l494 1250q-75 22 -122.5 86t-47.5 145q0 97 70 168.5t171 71.5q100 0 171 -71.5t71 -168.5q0 -78 -48 -143.5t-122 -87.5l493 -1250v-80l-20 -20h-84l-135 346l-27 21h-598l-28 -21l-134 -346h-84zM340 506l14 -17h504l14 17l-266 688zM459 1581 q0 -59 39.5 -101t95.5 -46h12q62 0 105 43t43 104t-43.5 103t-104.5 42q-60 0 -103.5 -41.5t-43.5 -103.5z" />
<glyph unicode="&#xc6;" horiz-adv-x="1706" d="M41 20v80l621 1313l20 21h922l20 -21v-82l-20 -20h-635l-21 -21v-471l21 -20h569l21 -21v-82l-21 -20h-569l-21 -21v-512l21 -20h635l20 -21v-82l-20 -20h-766l-21 20v326l-20 21h-471l-29 -21l-162 -346h-74zM373 506l14 -17h410l20 21v801h-65z" />
<glyph unicode="&#xc7;" horiz-adv-x="1395" d="M102 717q0 225 75 392.5t218 256t338 88.5q241 0 382.5 -98.5t178.5 -288.5l-20 -16h-98l-21 18q-45 141 -144 201.5t-280 60.5q-232 0 -360.5 -160.5t-128.5 -453.5t129 -454t366 -161q334 0 422 285l21 25h102l21 -19q-56 -203 -188.5 -303.5t-340.5 -107.5l-18 -54 q86 -8 137 -50.5t51 -115.5q0 -97 -74 -150.5t-213 -53.5h-22l-62 4l-20 20v60l20 20q31 -4 66 -4q83 0 132.5 26.5t49.5 75.5q0 97 -164 97h-28l-13 20l43 107q-264 23 -410.5 218.5t-146.5 514.5z" />
<glyph unicode="&#xc8;" horiz-adv-x="1042" d="M154 20v1393l20 21h766l21 -21v-82l-21 -20h-635l-20 -21v-471l20 -20h569l21 -21v-82l-21 -20h-569l-20 -21v-512l20 -20h635l21 -21v-82l-21 -20h-766zM326 1804l20 43h142l233 -288l-20 -31h-74z" />
<glyph unicode="&#xc9;" horiz-adv-x="1042" d="M154 20v1393l20 21h766l21 -21v-82l-21 -20h-635l-20 -21v-471l20 -20h569l21 -21v-82l-21 -20h-569l-20 -21v-512l20 -20h635l21 -21v-82l-21 -20h-766zM438 1559l233 288h142l20 -43l-301 -276h-74z" />
<glyph unicode="&#xca;" horiz-adv-x="1042" d="M154 20v1393l20 21h766l21 -21v-82l-21 -20h-635l-20 -21v-471l20 -20h569l21 -21v-82l-21 -20h-569l-20 -21v-512l20 -20h635l21 -21v-82l-21 -20h-766zM245 1559l207 268l27 20h149l27 -20l207 -268l-21 -31h-73l-215 223l-213 -223h-74z" />
<glyph unicode="&#xcb;" horiz-adv-x="1042" d="M154 20v1393l20 21h766l21 -21v-82l-21 -20h-635l-20 -21v-471l20 -20h569l21 -21v-82l-21 -20h-569l-20 -21v-512l20 -20h635l21 -21v-82l-21 -20h-766zM285 1573v125l20 20h125l21 -20v-125l-21 -21h-125zM690 1573v125l21 20h125l20 -20v-125l-20 -21h-125z" />
<glyph unicode="&#xcc;" horiz-adv-x="438" d="M-77 1804l20 43h142l233 -288l-20 -31h-74zM154 20v1393l20 21h90l21 -21v-1393l-21 -20h-90z" />
<glyph unicode="&#xcd;" horiz-adv-x="438" d="M137 1559l233 288h142l20 -43l-301 -276h-74zM154 20v1393l20 21h90l21 -21v-1393l-21 -20h-90z" />
<glyph unicode="&#xce;" horiz-adv-x="438" d="M-88 1559l207 268l27 20h149l27 -20l207 -268l-21 -31h-73l-215 223l-213 -223h-74zM154 20v1393l20 21h90l21 -21v-1393l-21 -20h-90z" />
<glyph unicode="&#xcf;" horiz-adv-x="438" d="M-64 1573v125l20 20h125l21 -20v-125l-21 -21h-125zM154 20v1393l20 21h90l21 -21v-1393l-21 -20h-90zM341 1573v125l21 20h125l20 -20v-125l-20 -21h-125z" />
<glyph unicode="&#xd0;" horiz-adv-x="1393" d="M18 676v82l21 20h94l21 21v614l20 21h434q324 0 503 -183t179 -514q0 -353 -173.5 -545t-491.5 -192h-451l-20 20v615l-21 20h-94zM285 145l20 -20h313q268 0 400.5 151t132.5 467q0 270 -140 418t-397 148h-309l-20 -21v-489l20 -21h371l20 -20v-82l-20 -21h-371 l-20 -20v-490z" />
<glyph unicode="&#xd1;" horiz-adv-x="1360" d="M154 20v1393l20 21h70l32 -21l822 -1198q-2 42 -6.5 109t-4.5 170v919l21 21h78l20 -21v-1393l-20 -20h-74l-33 20l-815 1190q10 -155 10 -258v-932l-20 -20h-80zM348 1552q7 124 52 180t128 56q74 0 180 -66q106 -67 138 -67q51 0 65 72l8 40l21 21h73l21 -21 q-5 -101 -54 -168t-128 -67q-46 0 -89 21t-83 45l-74 46q-35 21 -66 21q-23 0 -37 -10.5t-22 -28t-16 -74.5l-21 -20h-76z" />
<glyph unicode="&#xd2;" horiz-adv-x="1475" d="M102 717q0 347 167 542t468 195t468 -195t167 -542q0 -345 -165.5 -541t-469.5 -196q-301 0 -468 195t-167 542zM242 717q0 -296 129 -455.5t366 -159.5t366.5 160.5t129.5 454.5q0 295 -130 454.5t-366 159.5t-365.5 -158.5t-129.5 -455.5zM424 1804l20 43h142l233 -288 l-20 -31h-74z" />
<glyph unicode="&#xd3;" horiz-adv-x="1475" d="M102 717q0 347 167 542t468 195t468 -195t167 -542q0 -345 -165.5 -541t-469.5 -196q-301 0 -468 195t-167 542zM242 717q0 -296 129 -455.5t366 -159.5t366.5 160.5t129.5 454.5q0 295 -130 454.5t-366 159.5t-365.5 -158.5t-129.5 -455.5zM637 1559l233 288h142l20 -43 l-301 -276h-74z" />
<glyph unicode="&#xd4;" horiz-adv-x="1475" d="M102 717q0 347 167 542t468 195t468 -195t167 -542q0 -345 -165.5 -541t-469.5 -196q-301 0 -468 195t-167 542zM242 717q0 -296 129 -455.5t366 -159.5t366.5 160.5t129.5 454.5q0 295 -130 454.5t-366 159.5t-365.5 -158.5t-129.5 -455.5zM430 1559l207 268l27 20h149 l27 -20l207 -268l-21 -31h-73l-215 223l-213 -223h-74z" />
<glyph unicode="&#xd5;" horiz-adv-x="1475" d="M102 717q0 347 167 542t468 195t468 -195t167 -542q0 -345 -165.5 -541t-469.5 -196q-301 0 -468 195t-167 542zM242 717q0 -296 129 -455.5t366 -159.5t366.5 160.5t129.5 454.5q0 295 -130 454.5t-366 159.5t-365.5 -158.5t-129.5 -455.5zM395 1552q7 124 52 180 t128 56q74 0 180 -66q106 -67 138 -67q51 0 65 72l8 40l21 21h73l21 -21q-5 -101 -54 -168t-128 -67q-46 0 -89 21t-82 45l-75 46q-35 21 -66 21q-23 0 -37 -10.5t-22 -28t-16 -74.5l-21 -20h-76z" />
<glyph unicode="&#xd6;" horiz-adv-x="1475" d="M102 717q0 347 167 542t468 195t468 -195t167 -542q0 -345 -165.5 -541t-469.5 -196q-301 0 -468 195t-167 542zM242 717q0 -296 129 -455.5t366 -159.5t366.5 160.5t129.5 454.5q0 295 -130 454.5t-366 159.5t-365.5 -158.5t-129.5 -455.5zM453 1573v125l20 20h125 l21 -20v-125l-21 -21h-125zM858 1573v125l21 20h125l20 -20v-125l-20 -21h-125z" />
<glyph unicode="&#xd7;" d="M125 1049v30l61 60h29l354 -355h29l350 349h29l57 -58v-28l-348 -349v-30l356 -355v-30l-61 -60h-29l-356 357h-29l-350 -351h-29l-57 60v28l348 349v28z" />
<glyph unicode="&#xd8;" horiz-adv-x="1475" d="M68 -45l176 223v33q-142 198 -142 506q0 347 167 542t468 195q231 0 385 -119h31l113 144l28 20h101l12 -20l-176 -224v-32q141 -196 141 -506q0 -345 -165.5 -541t-469.5 -196q-230 0 -385 118h-30l-113 -143l-29 -21h-100zM242 717q0 -240 86 -391h32l682 874v33 q-116 98 -305 98q-236 0 -365.5 -158.5t-129.5 -455.5zM432 201q118 -99 305 -99q237 0 366.5 160.5t129.5 454.5q0 237 -86 391h-33l-682 -875v-32z" />
<glyph unicode="&#xd9;" horiz-adv-x="1391" d="M143 537v876l21 21h90l20 -21v-889q0 -204 106 -312t306 -108q208 0 319 108.5t111 313.5v887l21 21h90l20 -21v-862q0 -273 -148 -422t-417 -149q-259 0 -399 143t-140 414zM383 1804l20 43h142l233 -288l-20 -31h-74z" />
<glyph unicode="&#xda;" horiz-adv-x="1391" d="M143 537v876l21 21h90l20 -21v-889q0 -204 106 -312t306 -108q208 0 319 108.5t111 313.5v887l21 21h90l20 -21v-862q0 -273 -148 -422t-417 -149q-259 0 -399 143t-140 414zM608 1559l233 288h142l20 -43l-301 -276h-74z" />
<glyph unicode="&#xdb;" horiz-adv-x="1391" d="M143 537v876l21 21h90l20 -21v-889q0 -204 106 -312t306 -108q208 0 319 108.5t111 313.5v887l21 21h90l20 -21v-862q0 -273 -148 -422t-417 -149q-259 0 -399 143t-140 414zM387 1559l207 268l27 20h149l27 -20l207 -268l-21 -31h-73l-215 223l-213 -223h-74z" />
<glyph unicode="&#xdc;" horiz-adv-x="1391" d="M143 537v876l21 21h90l20 -21v-889q0 -204 106 -312t306 -108q208 0 319 108.5t111 313.5v887l21 21h90l20 -21v-862q0 -273 -148 -422t-417 -149q-259 0 -399 143t-140 414zM410 1573v125l20 20h125l21 -20v-125l-21 -21h-125zM815 1573v125l21 20h125l20 -20v-125 l-20 -21h-125z" />
<glyph unicode="&#xdd;" horiz-adv-x="1087" d="M41 1337v76l20 21h72l412 -666l416 666h65l21 -21v-76l-439 -690v-627l-20 -20h-90l-21 20v627zM479 1559l233 288h142l20 -43l-301 -276h-74z" />
<glyph unicode="&#xde;" horiz-adv-x="1143" d="M154 20v1393l20 21h90l21 -21v-231l20 -21h250q238 0 361.5 -108.5t123.5 -311.5q0 -213 -125 -322.5t-364 -109.5h-246l-20 -20v-269l-21 -20h-90zM285 453l20 -21h248q180 0 265 82t85 231q0 146 -82.5 218.5t-253.5 72.5h-262l-20 -20v-563z" />
<glyph unicode="&#xdf;" horiz-adv-x="1094" d="M135 20v990q0 228 101.5 345.5t298.5 117.5q164 0 259 -72t95 -201q0 -60 -13.5 -102.5t-39.5 -76.5t-88 -83q-75 -63 -90 -79.5t-21 -32.5t-6 -33q0 -26 14.5 -50t39 -48t114.5 -89q89 -64 129.5 -111.5t63 -104t22.5 -126.5q0 -131 -85.5 -206.5t-223.5 -75.5 q-147 0 -231 61t-114 186l21 21h92l19 -21q24 -74 77.5 -105.5t135.5 -31.5q186 0 186 172q0 74 -47.5 137.5t-197.5 167.5q-69 48 -103.5 103t-34.5 123q0 98 96 172q105 81 132.5 122.5t27.5 110.5q0 76 -62 120t-167 44q-139 0 -206 -89.5t-67 -268.5v-986l-20 -20h-86z " />
<glyph unicode="&#xe0;" horiz-adv-x="1085" d="M82 295q0 309 434 309q108 0 255 -14l48 -4l17 20q0 181 -68 257.5t-221 76.5q-133 0 -198 -32t-87 -103l-20 -17h-95l-20 17q16 113 128 179.5t288 66.5q218 0 319 -102.5t101 -319.5v-609l-21 -20h-84l-18 20v162h-6q-75 -114 -167 -158t-221 -44q-175 0 -269.5 79 t-94.5 236zM217 297q0 -112 61 -160.5t195 -48.5q173 0 268 99.5t95 277.5l-17 22q-167 17 -295 17q-170 0 -238.5 -47.5t-68.5 -159.5zM291 1419l20 43h142l233 -288l-20 -31h-74z" />
<glyph unicode="&#xe1;" horiz-adv-x="1085" d="M82 295q0 309 434 309q108 0 255 -14l48 -4l17 20q0 181 -68 257.5t-221 76.5q-133 0 -198 -32t-87 -103l-20 -17h-95l-20 17q16 113 128 179.5t288 66.5q218 0 319 -102.5t101 -319.5v-609l-21 -20h-84l-18 20v162h-6q-75 -114 -167 -158t-221 -44q-175 0 -269.5 79 t-94.5 236zM217 297q0 -112 61 -160.5t195 -48.5q173 0 268 99.5t95 277.5l-17 22q-167 17 -295 17q-170 0 -238.5 -47.5t-68.5 -159.5zM453 1174l233 288h142l20 -43l-301 -276h-74z" />
<glyph unicode="&#xe2;" horiz-adv-x="1085" d="M82 295q0 309 434 309q108 0 255 -14l48 -4l17 20q0 181 -68 257.5t-221 76.5q-133 0 -198 -32t-87 -103l-20 -17h-95l-20 17q16 113 128 179.5t288 66.5q218 0 319 -102.5t101 -319.5v-609l-21 -20h-84l-18 20v162h-6q-75 -114 -167 -158t-221 -44q-175 0 -269.5 79 t-94.5 236zM217 297q0 -112 61 -160.5t195 -48.5q173 0 268 99.5t95 277.5l-17 22q-167 17 -295 17q-170 0 -238.5 -47.5t-68.5 -159.5zM241 1174l207 268l27 20h149l27 -20l207 -268l-21 -31h-73l-215 223l-213 -223h-74z" />
<glyph unicode="&#xe3;" horiz-adv-x="1085" d="M82 295q0 309 434 309q108 0 255 -14l48 -4l17 20q0 181 -68 257.5t-221 76.5q-133 0 -198 -32t-87 -103l-20 -17h-95l-20 17q16 113 128 179.5t288 66.5q218 0 319 -102.5t101 -319.5v-609l-21 -20h-84l-18 20v162h-6q-75 -114 -167 -158t-221 -44q-175 0 -269.5 79 t-94.5 236zM191 1163q7 124 52 180t128 56q74 0 180 -66q106 -67 138 -67q51 0 65 72l8 40l21 21h73l21 -21q-5 -101 -54 -168t-128 -67q-46 0 -89 21t-82 46l-75 45q-35 21 -66 21q-23 0 -37 -10.5t-22 -28t-16 -74.5l-21 -20h-76zM217 297q0 -112 61 -160.5t195 -48.5 q173 0 268 99.5t95 277.5l-17 22q-167 17 -295 17q-170 0 -238.5 -47.5t-68.5 -159.5z" />
<glyph unicode="&#xe4;" horiz-adv-x="1085" d="M82 295q0 309 434 309q108 0 255 -14l48 -4l17 20q0 181 -68 257.5t-221 76.5q-133 0 -198 -32t-87 -103l-20 -17h-95l-20 17q16 113 128 179.5t288 66.5q218 0 319 -102.5t101 -319.5v-609l-21 -20h-84l-18 20v162h-6q-75 -114 -167 -158t-221 -44q-175 0 -269.5 79 t-94.5 236zM217 297q0 -112 61 -160.5t195 -48.5q173 0 268 99.5t95 277.5l-17 22q-167 17 -295 17q-170 0 -238.5 -47.5t-68.5 -159.5zM258 1200v125l20 21h125l21 -21v-125l-21 -20h-125zM663 1200v125l21 21h125l20 -21v-125l-20 -20h-125z" />
<glyph unicode="&#xe5;" horiz-adv-x="1085" d="M82 295q0 309 434 309q108 0 255 -14l48 -4l17 20q0 181 -68 257.5t-221 76.5q-133 0 -198 -32t-87 -103l-20 -17h-95l-20 17q16 113 128 179.5t288 66.5q218 0 319 -102.5t101 -319.5v-609l-21 -20h-84l-18 20v162h-6q-75 -114 -167 -158t-221 -44q-175 0 -269.5 79 t-94.5 236zM217 297q0 -112 61 -160.5t195 -48.5q173 0 268 99.5t95 277.5l-17 22q-167 17 -295 17q-170 0 -238.5 -47.5t-68.5 -159.5zM299 1383q0 99 71.5 169t170.5 70t170.5 -70.5t71.5 -168.5q0 -100 -71 -171t-171 -71t-171 71t-71 171zM393 1383q0 -62 43 -105 t105 -43q61 0 104 43t43 105q0 61 -44 103t-103 42q-61 0 -104.5 -42.5t-43.5 -102.5z" />
<glyph unicode="&#xe6;" horiz-adv-x="1866" d="M82 295q0 309 434 309q108 0 255 -14l48 -4l17 20q0 181 -68 257.5t-221 76.5q-133 0 -198 -32t-87 -103l-20 -17h-95l-20 17q16 113 128 179.5t288 66.5q152 0 245.5 -48.5t135.5 -150.5q66 101 168 150t219 49q224 0 348.5 -131t124.5 -365v-55l-25 -21h-772l-20 -20 q26 -367 350 -367q115 0 185.5 37t115.5 121l20 16h95l14 -18q-45 -131 -157.5 -199.5t-274.5 -68.5q-309 0 -422 264q-130 -264 -447 -264q-175 0 -269.5 79t-94.5 236zM217 297q0 -112 61 -160.5t195 -48.5q173 0 268 99.5t95 277.5l-17 22q-167 17 -295 17 q-170 0 -238.5 -47.5t-68.5 -159.5zM973 610l20 -20h637l21 20q-11 162 -98.5 246t-239.5 84q-154 0 -245 -90t-95 -240z" />
<glyph unicode="&#xe7;" horiz-adv-x="1069" d="M82 520q0 250 129.5 390.5t353.5 140.5q353 0 414 -293l-12 -17h-99l-22 19q-29 95 -94.5 137.5t-186.5 42.5q-354 0 -354 -422q0 -203 93.5 -314.5t260.5 -111.5q128 0 200 47t105 154l15 16h90l12 -16q-57 -297 -389 -311l-18 -54q86 -8 137 -50.5t51 -115.5 q0 -97 -74 -150.5t-213 -53.5h-22l-62 4l-20 20v60l20 20q31 -4 66 -4q83 0 132.5 26.5t49.5 75.5q0 97 -164 97h-28l-13 20l45 107q-191 23 -297 164.5t-106 371.5z" />
<glyph unicode="&#xe8;" horiz-adv-x="1110" d="M82 520q0 165 58.5 284t167 183t247.5 64q223 0 348 -129.5t125 -366.5v-55l-24 -21h-773l-20 -20q26 -367 350 -367q115 0 185.5 37t115.5 121l21 16h94l14 -18q-45 -131 -157.5 -199.5t-274.5 -68.5q-229 0 -353 143t-124 397zM217 610l21 -20h636l21 20 q-11 162 -97.5 246t-240.5 84t-245 -90t-95 -240zM266 1419l20 43h142l233 -288l-20 -31h-74z" />
<glyph unicode="&#xe9;" horiz-adv-x="1110" d="M82 520q0 165 58.5 284t167 183t247.5 64q223 0 348 -129.5t125 -366.5v-55l-24 -21h-773l-20 -20q26 -367 350 -367q115 0 185.5 37t115.5 121l21 16h94l14 -18q-45 -131 -157.5 -199.5t-274.5 -68.5q-229 0 -353 143t-124 397zM217 610l21 -20h636l21 20 q-11 162 -97.5 246t-240.5 84t-245 -90t-95 -240zM465 1174l233 288h142l20 -43l-301 -276h-74z" />
<glyph unicode="&#xea;" horiz-adv-x="1110" d="M82 520q0 165 58.5 284t167 183t247.5 64q223 0 348 -129.5t125 -366.5v-55l-24 -21h-773l-20 -20q26 -367 350 -367q115 0 185.5 37t115.5 121l21 16h94l14 -18q-45 -131 -157.5 -199.5t-274.5 -68.5q-229 0 -353 143t-124 397zM217 610l21 -20h636l21 20 q-11 162 -97.5 246t-240.5 84t-245 -90t-95 -240zM247 1174l207 268l27 20h149l27 -20l207 -268l-21 -31h-73l-215 223l-213 -223h-74z" />
<glyph unicode="&#xeb;" horiz-adv-x="1110" d="M82 520q0 165 58.5 284t167 183t247.5 64q223 0 348 -129.5t125 -366.5v-55l-24 -21h-773l-20 -20q26 -367 350 -367q115 0 185.5 37t115.5 121l21 16h94l14 -18q-45 -131 -157.5 -199.5t-274.5 -68.5q-229 0 -353 143t-124 397zM217 610l21 -20h636l21 20 q-11 162 -97.5 246t-240.5 84t-245 -90t-95 -240zM271 1200v125l20 21h125l21 -21v-125l-21 -20h-125zM676 1200v125l21 21h125l20 -21v-125l-20 -20h-125z" />
<glyph unicode="&#xec;" horiz-adv-x="397" d="M-93 1419l20 43h142l233 -288l-20 -31h-74zM135 20v990l21 20h86l20 -20v-990l-20 -20h-86z" />
<glyph unicode="&#xed;" horiz-adv-x="397" d="M97 1174l233 288h142l20 -43l-301 -276h-74zM135 20v990l21 20h86l20 -20v-990l-20 -20h-86z" />
<glyph unicode="&#xee;" horiz-adv-x="397" d="M-108 1174l207 268l27 20h149l27 -20l207 -268l-21 -31h-73l-215 223l-213 -223h-74zM135 20v990l21 20h86l20 -20v-990l-20 -20h-86z" />
<glyph unicode="&#xef;" horiz-adv-x="397" d="M-85 1200v125l20 21h125l21 -21v-125l-21 -20h-125zM135 20v990l21 20h86l20 -20v-990l-20 -20h-86zM320 1200v125l21 21h125l20 -21v-125l-20 -20h-125z" />
<glyph unicode="&#xf0;" horiz-adv-x="1130" d="M82 477q0 229 128.5 361.5t354.5 132.5q142 0 277 -92q-100 198 -244 335l-309 -139l-21 10v62l21 31l233 106q-100 82 -207 146l23 24h119q86 -47 174 -121l280 129l21 -8v-63l-21 -33l-204 -94q158 -162 250 -360t92 -380q0 -265 -125.5 -404.5t-362.5 -139.5 q-221 0 -350 134t-129 363zM211 477q0 -125 44 -210.5t121 -130t183 -44.5q175 0 267 100.5t92 284.5q0 182 -89.5 282.5t-259.5 100.5q-173 0 -265.5 -99.5t-92.5 -283.5z" />
<glyph unicode="&#xf1;" horiz-adv-x="1120" d="M135 20v990l21 20h82l20 -20v-117h4q134 158 348 158q183 0 285 -103t102 -295v-633l-20 -20h-82l-25 20v617q0 303 -280 303q-159 0 -243.5 -85.5t-84.5 -238.5v-596l-20 -20h-86zM232 1163q7 124 52 180t128 56q74 0 180 -66q106 -67 138 -67q51 0 65 72l8 40l21 21h73 l21 -21q-5 -101 -54 -168t-128 -67q-46 0 -89 21t-83 46l-74 45q-35 21 -66 21q-23 0 -37 -10.5t-22 -28t-16 -74.5l-21 -20h-76z" />
<glyph unicode="&#xf2;" horiz-adv-x="1130" d="M82 518q0 245 127.5 389t355.5 144q233 0 358.5 -138.5t125.5 -394.5q0 -250 -130 -394t-358 -144q-222 0 -350.5 145.5t-128.5 392.5zM211 518q0 -205 91.5 -315.5t256.5 -110.5q177 0 268 107.5t91 318.5q0 204 -89 313t-260 109q-176 0 -267 -107.5t-91 -314.5z M252 1419l20 43h142l233 -288l-20 -31h-74z" />
<glyph unicode="&#xf3;" horiz-adv-x="1130" d="M82 518q0 245 127.5 389t355.5 144q233 0 358.5 -138.5t125.5 -394.5q0 -250 -130 -394t-358 -144q-222 0 -350.5 145.5t-128.5 392.5zM211 518q0 -205 91.5 -315.5t256.5 -110.5q177 0 268 107.5t91 318.5q0 204 -89 313t-260 109q-176 0 -267 -107.5t-91 -314.5z M492 1174l233 288h142l20 -43l-301 -276h-74z" />
<glyph unicode="&#xf4;" horiz-adv-x="1130" d="M82 518q0 245 127.5 389t355.5 144q233 0 358.5 -138.5t125.5 -394.5q0 -250 -130 -394t-358 -144q-222 0 -350.5 145.5t-128.5 392.5zM211 518q0 -205 91.5 -315.5t256.5 -110.5q177 0 268 107.5t91 318.5q0 204 -89 313t-260 109q-176 0 -267 -107.5t-91 -314.5z M258 1174l207 268l27 20h149l27 -20l207 -268l-21 -31h-73l-215 223l-213 -223h-74z" />
<glyph unicode="&#xf5;" horiz-adv-x="1130" d="M82 518q0 245 127.5 389t355.5 144q233 0 358.5 -138.5t125.5 -394.5q0 -250 -130 -394t-358 -144q-222 0 -350.5 145.5t-128.5 392.5zM211 518q0 -205 91.5 -315.5t256.5 -110.5q177 0 268 107.5t91 318.5q0 204 -89 313t-260 109q-176 0 -267 -107.5t-91 -314.5z M223 1163q7 124 52 180t128 56q74 0 180 -66q106 -67 138 -67q51 0 65 72l8 40l21 21h73l21 -21q-5 -101 -54 -168t-128 -67q-46 0 -89 21t-82 46l-75 45q-35 21 -66 21q-23 0 -37 -10.5t-22 -28t-16 -74.5l-21 -20h-76z" />
<glyph unicode="&#xf6;" horiz-adv-x="1130" d="M82 518q0 245 127.5 389t355.5 144q233 0 358.5 -138.5t125.5 -394.5q0 -250 -130 -394t-358 -144q-222 0 -350.5 145.5t-128.5 392.5zM211 518q0 -205 91.5 -315.5t256.5 -110.5q177 0 268 107.5t91 318.5q0 204 -89 313t-260 109q-176 0 -267 -107.5t-91 -314.5z M281 1200v125l20 21h125l21 -21v-125l-21 -20h-125zM686 1200v125l21 21h125l20 -21v-125l-20 -20h-125z" />
<glyph unicode="&#xf7;" d="M68 641v82l20 20h991l21 -20v-82l-21 -20h-991zM512 246v96l20 20h101l20 -20v-96l-20 -21h-101zM512 1022v96l20 21h101l20 -21v-96l-20 -21h-101z" />
<glyph unicode="&#xf8;" horiz-adv-x="1130" d="M39 -35l135 160v37q-92 132 -92 356q0 245 127.5 389t355.5 144q175 0 293 -84h25l82 98l28 20h86l13 -20l-136 -160v-37q93 -134 93 -350q0 -250 -130 -394t-358 -144q-173 0 -289 83h-24l-82 -98l-29 -20h-86zM211 518q0 -152 49 -254h31l487 582v33q-82 61 -209 61 q-176 0 -267 -107.5t-91 -314.5zM352 152q83 -60 207 -60q177 0 268 107.5t91 318.5q0 148 -48 248h-30l-488 -582v-32z" />
<glyph unicode="&#xf9;" horiz-adv-x="1120" d="M123 377v633l20 20h82l25 -20v-617q0 -303 280 -303q159 0 243.5 85.5t84.5 238.5v596l21 20h86l20 -20v-990l-20 -20h-82l-21 20v117h-4q-72 -82 -156 -119.5t-192 -37.5q-183 0 -285 103t-102 294zM266 1419l20 43h142l233 -288l-20 -31h-74z" />
<glyph unicode="&#xfa;" horiz-adv-x="1120" d="M123 377v633l20 20h82l25 -20v-617q0 -303 280 -303q159 0 243.5 85.5t84.5 238.5v596l21 20h86l20 -20v-990l-20 -20h-82l-21 20v117h-4q-72 -82 -156 -119.5t-192 -37.5q-183 0 -285 103t-102 294zM479 1174l233 288h142l20 -43l-301 -276h-74z" />
<glyph unicode="&#xfb;" horiz-adv-x="1120" d="M123 377v633l20 20h82l25 -20v-617q0 -303 280 -303q159 0 243.5 85.5t84.5 238.5v596l21 20h86l20 -20v-990l-20 -20h-82l-21 20v117h-4q-72 -82 -156 -119.5t-192 -37.5q-183 0 -285 103t-102 294zM251 1174l207 268l27 20h149l27 -20l207 -268l-21 -31h-73l-215 223 l-213 -223h-74z" />
<glyph unicode="&#xfc;" horiz-adv-x="1120" d="M123 377v633l20 20h82l25 -20v-617q0 -303 280 -303q159 0 243.5 85.5t84.5 238.5v596l21 20h86l20 -20v-990l-20 -20h-82l-21 20v117h-4q-72 -82 -156 -119.5t-192 -37.5q-183 0 -285 103t-102 294zM275 1200v125l20 21h125l21 -21v-125l-21 -20h-125zM680 1200v125 l21 21h125l20 -21v-125l-20 -20h-125z" />
<glyph unicode="&#xfd;" horiz-adv-x="987" d="M51 946v64l21 20h88l340 -876l329 876h86l21 -20v-64l-375 -950q-105 -257 -173 -343.5t-155 -86.5h-112l-21 20v86l21 21h72q75 0 126.5 69t114.5 244zM402 1174l233 288h142l20 -43l-301 -276h-74z" />
<glyph unicode="&#xfe;" horiz-adv-x="1163" d="M135 -422v1874l21 21h84l18 -21v-561h4q123 158 342 158q222 0 349.5 -145t127.5 -392q0 -248 -128.5 -389t-354.5 -141q-223 0 -342 161h-4l5 -67l5 -111v-387l-22 -20h-82zM262 395q0 -144 89.5 -224.5t252.5 -80.5q165 0 256.5 108.5t91.5 311.5q0 207 -90.5 317.5 t-259.5 110.5q-161 0 -250.5 -79.5t-89.5 -225.5v-238z" />
<glyph unicode="&#xff;" horiz-adv-x="987" d="M51 946v64l21 20h88l340 -876l329 876h86l21 -20v-64l-375 -950q-105 -257 -173 -343.5t-155 -86.5h-112l-21 20v86l21 21h72q75 0 126.5 69t114.5 244zM215 1200v125l20 21h125l21 -21v-125l-21 -20h-125zM620 1200v125l21 21h125l20 -21v-125l-20 -20h-125z" />
<glyph unicode="&#x152;" horiz-adv-x="1853" d="M102 717q0 347 167 542t468 195q126 0 215 -20h799l21 -21v-82l-21 -20h-635l-20 -21v-471l20 -20h570l20 -21v-82l-20 -20h-570l-20 -21v-512l20 -20h635l21 -21v-82l-21 -20h-795q-89 -20 -219 -20q-301 0 -468 195t-167 542zM242 717q0 -296 129 -455.5t366 -159.5 q149 0 228 33v1159q-89 37 -228 37q-236 0 -365.5 -158.5t-129.5 -455.5z" />
<glyph unicode="&#x153;" horiz-adv-x="1948" d="M82 518q0 245 127.5 389t355.5 144q158 0 262 -62t158 -170q60 111 166.5 171.5t241.5 60.5q224 0 348.5 -131t124.5 -365v-55l-25 -21h-772l-20 -20q26 -367 350 -367q113 0 183 35.5t118 122.5l20 16h95l14 -18q-45 -131 -157.5 -199.5t-274.5 -68.5q-296 0 -416 235 q-57 -111 -162.5 -173t-257.5 -62q-222 0 -350.5 145.5t-128.5 392.5zM211 518q0 -205 91.5 -315.5t256.5 -110.5q177 0 268 107.5t91 318.5q0 204 -89 313t-260 109q-176 0 -267 -107.5t-91 -314.5zM1055 610l20 -20h637l21 20q-11 162 -98.5 246t-239.5 84 q-154 0 -245 -90t-95 -240z" />
<glyph unicode="&#x178;" horiz-adv-x="1087" d="M41 1337v76l20 21h72l412 -666l416 666h65l21 -21v-76l-439 -690v-627l-20 -20h-90l-21 20v627zM258 1573v125l20 20h125l21 -20v-125l-21 -21h-125zM663 1573v125l21 20h125l20 -20v-125l-20 -21h-125z" />
<glyph unicode="&#x2c6;" horiz-adv-x="745" d="M63 1174l207 268l27 20h149l27 -20l207 -268l-21 -31h-73l-215 223l-213 -223h-74z" />
<glyph unicode="&#x2dc;" horiz-adv-x="764" d="M37 1163q7 124 52 180t128 56q74 0 180 -66q106 -67 138 -67q51 0 65 72l8 40l21 21h73l21 -21q-5 -101 -54 -168t-128 -67q-46 0 -89 21t-83 46l-74 45q-35 21 -66 21q-23 0 -37 -10.5t-22 -28t-16 -74.5l-21 -20h-76z" />
<glyph unicode="&#x2013;" horiz-adv-x="1014" d="M0 510v70l20 20h973l21 -20v-70l-21 -21h-973z" />
<glyph unicode="&#x2014;" horiz-adv-x="2048" d="M0 510v70l20 20h2008l20 -20v-70l-20 -21h-2008z" />
<glyph unicode="&#x2018;" horiz-adv-x="369" d="M92 1012v100q0 57 9 106.5t23.5 91t49.5 103.5l27 21h55l20 -21q-39 -60 -58 -109.5t-25 -109.5l20 -20h33l20 -21v-141l-20 -21h-133z" />
<glyph unicode="&#x2019;" horiz-adv-x="369" d="M92 1012q34 52 56 102.5t28 116.5l-20 20h-33l-21 21v141l21 21h133l20 -21v-100q0 -85 -18 -154t-63 -147l-27 -21h-55z" />
<glyph unicode="&#x201a;" horiz-adv-x="369" d="M92 -240q37 57 57.5 107t26.5 113l-20 20h-33l-21 20v142l21 20h133l20 -20v-101q0 -85 -18.5 -154t-62.5 -147l-27 -20h-55z" />
<glyph unicode="&#x201c;" horiz-adv-x="666" d="M92 1012v100q0 57 9 106.5t23.5 91t49.5 103.5l27 21h55l20 -21q-39 -60 -58 -109.5t-25 -109.5l20 -20h33l20 -21v-141l-20 -21h-133zM389 1012v100q0 57 9 106.5t23.5 91t49.5 103.5l27 21h55l20 -21q-74 -114 -84 -219l21 -20h33l20 -21v-141l-20 -21h-133z" />
<glyph unicode="&#x201d;" horiz-adv-x="666" d="M92 1012q34 52 56 102.5t28 116.5l-20 20h-33l-21 21v141l21 21h133l20 -21v-100q0 -85 -18 -154t-63 -147l-27 -21h-55zM389 1012q34 52 56 102.5t28 116.5l-20 20h-33l-21 21v141l21 21h133l20 -21v-100q0 -85 -18 -154t-63 -147l-27 -21h-55z" />
<glyph unicode="&#x201e;" horiz-adv-x="666" d="M92 -240q37 57 57.5 107t26.5 113l-20 20h-33l-21 20v142l21 20h133l20 -20v-101q0 -85 -18.5 -154t-62.5 -147l-27 -20h-55zM389 -240q37 57 57.5 107t26.5 113l-20 20h-33l-21 20v142l21 20h133l20 -20v-101q0 -85 -18.5 -154t-62.5 -147l-27 -20h-55z" />
<glyph unicode="&#x2022;" horiz-adv-x="815" d="M213 717q0 81 57 136.5t136 55.5q80 0 138 -55.5t58 -136.5t-58 -139t-138 -58q-79 0 -136 57.5t-57 139.5z" />
<glyph unicode="&#x2026;" horiz-adv-x="1044" d="M92 20v140l21 20h123l20 -20v-140l-20 -20h-123zM440 20v140l21 20h123l20 -20v-140l-20 -20h-123zM788 20v140l21 20h123l20 -20v-140l-20 -20h-123z" />
<glyph unicode="&#x2039;" horiz-adv-x="582" d="M59 500v75l338 365h103l20 -39l-336 -364l338 -361l-20 -35h-105z" />
<glyph unicode="&#x203a;" horiz-adv-x="582" d="M59 176l336 361l-334 364l21 39h102l338 -365v-75l-338 -359h-104z" />
<glyph unicode="&#x20ac;" d="M43 547v69l20 21h91l16 16l-2 38v93l-14 19h-91l-20 20v70l20 20h99l18 21q32 254 155.5 387t334.5 133q180 0 286.5 -72t159.5 -235l-20 -19h-97l-26 15q-56 188 -293 188q-163 0 -249.5 -96.5t-113.5 -298.5l19 -23h450l21 -20v-70l-21 -20h-458l-21 -19v-129l23 -18 h456l21 -21v-69l-21 -21h-448l-19 -16q26 -204 112 -306t247 -102q224 0 307 209l23 15h94l24 -19q-109 -327 -444 -327q-434 0 -502 528l-16 18h-101z" />
<glyph unicode="&#x2122;" horiz-adv-x="1554" d="M51 1350v73l10 11h529l10 -11v-73l-10 -11h-205l-10 -10v-602l-10 -10h-78l-11 10v602l-10 10h-205zM674 727v696l10 11h107l14 -11l209 -495l33 -86q13 43 30 82l209 499l14 11h105l10 -11v-696l-10 -10h-76l-10 10v432q0 86 4 148q-14 -45 -51 -140l-185 -440l-14 -10 h-55l-14 10l-183 430q-37 87 -55 150l2 -148v-432l-10 -10h-74z" />
<glyph unicode="&#xe000;" horiz-adv-x="1030" d="M0 1030h1030v-1030h-1030v1030z" />
<glyph unicode="&#xfb01;" horiz-adv-x="958" d="M51 936v68l21 20h94l20 20v111q0 168 67.5 243t205.5 75h71l21 -21v-70l-21 -20h-69q-77 0 -112.5 -48.5t-35.5 -158.5v-111l21 -20h196l21 -20v-68l-21 -21h-196l-21 -22v-873l-20 -20h-86l-21 20v875l-20 20h-94zM696 20v990l21 20h86l20 -20v-990l-20 -20h-86z M696 1278v174l21 21h86l20 -21v-174l-20 -21h-86z" />
<glyph unicode="&#xfb02;" horiz-adv-x="1063" d="M51 936v68l21 20h94l20 20v111q0 168 67.5 243t205.5 75h71l21 -21v-70l-21 -20h-69q-77 0 -112.5 -48.5t-35.5 -158.5v-111l21 -20h196l21 -20v-68l-21 -21h-196l-21 -22v-873l-20 -20h-86l-21 20v875l-20 20h-94zM686 334v1118l20 21h86l21 -21v-1126q0 -122 29.5 -173 t101.5 -51h78l20 -20v-72l-20 -20h-101q-127 0 -181 80.5t-54 263.5z" />
<glyph unicode="&#xfb03;" horiz-adv-x="1519" d="M51 936v68l21 20h94l20 20v111q0 168 67.5 243t205.5 75h71l21 -21v-70l-21 -20h-69q-77 0 -112.5 -48.5t-35.5 -158.5v-111l21 -20h196l21 -20v-68l-21 -21h-196l-21 -22v-873l-20 -20h-86l-21 20v875l-20 20h-94zM612 936v68l21 20h94l20 20v111q0 168 67.5 243 t205.5 75h71l21 -21v-70l-21 -20h-69q-77 0 -112.5 -48.5t-35.5 -158.5v-111l21 -20h196l21 -20v-68l-21 -21h-196l-21 -22v-873l-20 -20h-86l-21 20v875l-20 20h-94zM1257 20v990l21 20h86l20 -20v-990l-20 -20h-86zM1257 1278v174l21 21h86l20 -21v-174l-20 -21h-86z" />
<glyph unicode="&#xfb04;" horiz-adv-x="1624" d="M51 936v68l21 20h94l20 20v111q0 168 67.5 243t205.5 75h71l21 -21v-70l-21 -20h-69q-77 0 -112.5 -48.5t-35.5 -158.5v-111l21 -20h196l21 -20v-68l-21 -21h-196l-21 -22v-873l-20 -20h-86l-21 20v875l-20 20h-94zM612 936v68l21 20h94l20 20v111q0 168 67.5 243 t205.5 75h71l21 -21v-70l-21 -20h-69q-77 0 -112.5 -48.5t-35.5 -158.5v-111l21 -20h196l21 -20v-68l-21 -21h-196l-21 -22v-873l-20 -20h-86l-21 20v875l-20 20h-94zM1247 334v1118l20 21h86l21 -21v-1126q0 -122 29.5 -173t101.5 -51h78l20 -20v-72l-20 -20h-101 q-127 0 -181 80.5t-54 263.5z" />
</font>
</defs>
</svg>
